<svg
  version="1.0"
  xmlns="http://www.w3.org/2000/svg"
  width="512.000000pt"
  height="512.000000pt"
  viewBox="0 0 512.000000 512.000000"
  preserveAspectRatio="xMidYMid meet"
>
  <g transform="translate(0.000000,512.000000) scale(0.100000,-0.100000)" fill="#000000"
    stroke="none">
    <path
      d="M900 4272 c-46 -23 -75 -79 -65 -130 6 -33 98 -129 778 -809 l772 -773 -772 -772 c-849 -851 -807 -802 -767 -885 25 -51 77 -78 129 -69 36 7 110 78 813 779 l772 772 773 -772 c702 -701 776 -772 812 -779 52 -9 104 18 129 69 40 83 82 34 -767 885 l-772 772 772 773 c680 680 772 776 778 809 15 82 -61 158 -143 143 -33 -6 -129 -98 -810 -778 l-772 -772 -768 767 c-428 428 -779 772 -795 777 -39 15 -56 14 -97 -7z" />
  </g>
</svg>