<svg version="1.0" xmlns="http://www.w3.org/2000/svg" width="512.000000pt" height="512.000000pt" viewBox="0 0 512.000000 512.000000" preserveAspectRatio="xMidYMid meet">
  <g transform="translate(0.000000,512.000000) scale(0.100000,-0.100000)" fill="#000000" stroke="none">
    <path d="M1100 4464 c-218 -47 -399 -229 -445 -449 -22 -105 -22 -2805 0 -2910 47 -222 228 -403 450 -450 105 -22 2805 -22 2910 0 222 47 403 228 450 450 22 105 22 2805 0 2910 -47 222 -228 403 -450 450 -102 21 -2815 21 -2915 -1z m2870 -315 c58 -18 130 -78 159 -134 l26 -50 3 -1385 c2 -1001 0 -1396 -9 -1426 -16 -60 -76 -133 -134 -163 l-50 -26 -1405 0 -1405 0 -50 26 c-58 30 -118 103 -134 163 -9 30 -11 425 -9 1426 l3 1385 26 50 c28 53 100 116 153 133 46 15 2776 16 2826 1z" />
  </g>
</svg>